<svg width="172" height="67" viewBox="0 0 172 67" fill="none" xmlns="http://www.w3.org/2000/svg">
<g id="Group 137">
<line id="Line 13" x1="169.5" y1="25.6857" x2="169.5" y2="1" stroke="#FFB400" stroke-width="5"/>
<path id="Amine" d="M31.6868 43.7143L41.9268 21.3143H44.2628L54.5028 43.7143H52.0068L42.5988 22.6903H43.5588L34.1508 43.7143H31.6868ZM35.7188 37.7303L36.4228 35.8103H49.4468L50.1508 37.7303H35.7188ZM78.7203 26.7543C80.0856 26.7543 81.2696 27.0209 82.2723 27.5543C83.2963 28.0663 84.0856 28.8556 84.6403 29.9223C85.2163 30.9889 85.5043 32.3329 85.5043 33.9543V43.7143H83.2323V34.1783C83.2323 32.4076 82.8056 31.0743 81.9523 30.1783C81.1203 29.2609 79.9363 28.8023 78.4003 28.8023C77.2483 28.8023 76.2456 29.0476 75.3923 29.5383C74.5603 30.0076 73.9096 30.7009 73.4403 31.6183C72.9923 32.5143 72.7683 33.6023 72.7683 34.8823V43.7143H70.4963V34.1783C70.4963 32.4076 70.0696 31.0743 69.2163 30.1783C68.363 29.2609 67.1683 28.8023 65.6323 28.8023C64.5016 28.8023 63.5096 29.0476 62.6563 29.5383C61.803 30.0076 61.1416 30.7009 60.6723 31.6183C60.2243 32.5143 60.0003 33.6023 60.0003 34.8823V43.7143H57.7283V26.9143H59.9043V31.4583L59.5523 30.6583C60.0643 29.4423 60.8856 28.4929 62.0163 27.8103C63.1683 27.1063 64.523 26.7543 66.0803 26.7543C67.723 26.7543 69.1203 27.1703 70.2723 28.0023C71.4243 28.8129 72.171 30.0396 72.5123 31.6823L71.6163 31.3303C72.107 29.9649 72.971 28.8663 74.2083 28.0343C75.467 27.1809 76.971 26.7543 78.7203 26.7543ZM91.6658 43.7143V26.9143H93.9378V43.7143H91.6658ZM92.8178 23.2023C92.3485 23.2023 91.9538 23.0423 91.6338 22.7223C91.3138 22.4023 91.1538 22.0183 91.1538 21.5703C91.1538 21.1223 91.3138 20.7489 91.6338 20.4503C91.9538 20.1303 92.3485 19.9703 92.8178 19.9703C93.2871 19.9703 93.6818 20.1196 94.0018 20.4183C94.3218 20.7169 94.4818 21.0903 94.4818 21.5383C94.4818 22.0076 94.3218 22.4023 94.0018 22.7223C93.7031 23.0423 93.3085 23.2023 92.8178 23.2023ZM108.836 26.7543C110.201 26.7543 111.396 27.0209 112.42 27.5543C113.465 28.0663 114.276 28.8556 114.852 29.9223C115.449 30.9889 115.748 32.3329 115.748 33.9543V43.7143H113.476V34.1783C113.476 32.4076 113.028 31.0743 112.132 30.1783C111.257 29.2609 110.02 28.8023 108.42 28.8023C107.225 28.8023 106.18 29.0476 105.284 29.5383C104.409 30.0076 103.726 30.7009 103.236 31.6183C102.766 32.5143 102.532 33.6023 102.532 34.8823V43.7143H100.26V26.9143H102.436V31.5223L102.084 30.6583C102.617 29.4423 103.47 28.4929 104.644 27.8103C105.817 27.1063 107.214 26.7543 108.836 26.7543ZM129.021 43.8743C127.271 43.8743 125.735 43.5116 124.413 42.7863C123.09 42.0396 122.055 41.0263 121.309 39.7463C120.562 38.4449 120.189 36.9623 120.189 35.2983C120.189 33.6343 120.541 32.1623 121.245 30.8823C121.97 29.6023 122.951 28.5996 124.189 27.8743C125.447 27.1276 126.855 26.7543 128.413 26.7543C129.991 26.7543 131.389 27.1169 132.605 27.8423C133.842 28.5463 134.813 29.5489 135.517 30.8503C136.221 32.1303 136.573 33.6129 136.573 35.2983C136.573 35.4049 136.562 35.5223 136.541 35.6503C136.541 35.7569 136.541 35.8743 136.541 36.0023H121.917V34.3063H135.325L134.429 34.9783C134.429 33.7623 134.162 32.6849 133.629 31.7463C133.117 30.7863 132.413 30.0396 131.517 29.5063C130.621 28.9729 129.586 28.7063 128.413 28.7063C127.261 28.7063 126.226 28.9729 125.309 29.5063C124.391 30.0396 123.677 30.7863 123.165 31.7463C122.653 32.7063 122.397 33.8049 122.397 35.0423V35.3943C122.397 36.6743 122.674 37.8049 123.229 38.7863C123.805 39.7463 124.594 40.5036 125.597 41.0583C126.621 41.5916 127.783 41.8583 129.085 41.8583C130.109 41.8583 131.058 41.6769 131.933 41.3143C132.829 40.9516 133.597 40.3969 134.237 39.6503L135.517 41.1223C134.77 42.0183 133.831 42.7009 132.701 43.1703C131.591 43.6396 130.365 43.8743 129.021 43.8743Z" fill="white"/>
<line id="Line 9" x1="141.281" y1="3.07143" x2="172" y2="3.07143" stroke="#FFB400" stroke-width="5"/>
<line id="Line 11" y1="-2.5" x2="30.5252" y2="-2.5" transform="matrix(-0.999995 -0.00308801 0.00474876 -0.999989 31.525 61.0167)" stroke="#FFB400" stroke-width="5"/>
<line id="Line 12" x1="2.59583" y1="65" x2="2.59583" y2="40.3143" stroke="#FFB400" stroke-width="5"/>
</g>
</svg>
